<?xml version="1.0" encoding="UTF-8"?><svg id="a" xmlns="http://www.w3.org/2000/svg" viewBox="0 0 36 36"><defs><style>.b{fill:#e91e69;}.c{fill:#303;}</style></defs><circle class="c" cx="18" cy="18" r="18"/><path class="b" d="M24.1699,15.4629c-.4927,0-.9146-.0701-1.2656-.2109l-12.8145,12.7617-2.373-2.373,8.332-8.332-2.0039-2.0039-.791,.791-1.6348-1.582v3.2168l-.791,.791-3.9551-4.0078,.791-.791h3.1641l-1.582-1.582,4.0078-4.0078c.6674-.6328,1.4584-.9492,2.373-.9492,.9138,0,1.7048,.3164,2.373,.9492l-2.373,2.4258,1.582,1.582-.791,.791,2.0039,2.0039,2.0566-2.1094c-.1409-.351-.2109-.7729-.2109-1.2656,0-1.0893,.3774-2.0212,1.1338-2.7949,.7556-.7729,1.6784-1.1602,2.7686-1.1602,.6674,0,1.2656,.1582,1.793,.4746l-3.0059,3.0059,1.6875,1.6875,3.0059-3.0059c.3164,.5273,.4746,1.1255,.4746,1.793,0,1.0901-.3873,2.0129-1.1602,2.7686-.7737,.7564-1.7056,1.1338-2.7949,1.1338Zm-4.166,5.8535l6.75,6.75,2.373-2.4258-6.75-6.75-2.373,2.4258Z"/></svg>