<?xml version="1.0" encoding="utf-8"?>
<!-- Generator: Adobe Illustrator 21.0.2, SVG Export Plug-In . SVG Version: 6.00 Build 0)  -->
<svg version="1.1" id="Ebene_1" xmlns="http://www.w3.org/2000/svg" xmlns:xlink="http://www.w3.org/1999/xlink" x="0px" y="0px"
	 viewBox="0 0 569.5 184.4" style="enable-background:new 0 0 569.5 184.4;" xml:space="preserve">
<style type="text/css">
	.st0{fill:#FFFFFF;}
	.st1{fill:url(#SVGID_1_);}
	.st2{fill:url(#SVGID_2_);}
</style>
<g>
	<g>
		<g>
			<g>
				<g>
					<path class="st0" d="M162,134.6c0,2.4-1.7,5.3-3.8,6.5l-73.4,42.4c-2.1,1.2-5.5,1.2-7.6,0L3.8,141.1C1.7,139.9,0,137,0,134.6
						V49.8c0-2.4,1.7-5.3,3.8-6.5L77.2,0.9c2.1-1.2,5.5-1.2,7.6,0l73.4,42.4c2.1,1.2,3.8,4.1,3.8,6.5L162,134.6z"/>
				</g>
			</g>
		</g>
	</g>
	<polygon class="st0" points="569.5,55.9 503.8,55.9 503.8,71.6 527.4,71.6 527.4,138.7 546,138.7 546,71.6 569.5,71.6 	"/>
	<polygon class="st0" points="271,55.9 205.2,55.9 205.2,71.6 228.8,71.6 228.8,138.7 247.4,138.7 247.4,71.6 271,71.6 	"/>
	<path class="st0" d="M461.2,53.3c-20.7,0-32.2,13.2-32.2,32.3v53.1h18.4V85.2c0-8.3,4.9-14.7,14-14.7s13.9,7.6,13.9,14.7v53.5h18.4
		V85.6C493.8,66.5,481.9,53.3,461.2,53.3L461.2,53.3z"/>
	<polygon class="st0" points="391.8,55.9 391.8,138.7 410.2,138.7 410.2,55.9 	"/>
	<polyline class="st0" points="329.4,88.7 330,92.4 347.3,138.7 354.8,138.7 378.3,55.9 360.2,55.9 349,99.4 348.3,104.1
		347.4,99.4 332.4,55.9 326.4,55.9 311.4,99.4 310.5,104.1 309.9,99.4 298.7,55.9 280.5,55.9 304,138.7 311.5,138.7 328.8,92.4
		329.4,88.7 	"/>
</g>
<g>

		<radialGradient id="SVGID_1_" cx="75.3617" cy="126.8913" r="88.4364" gradientTransform="matrix(1 0 0 -1 0 187)" gradientUnits="userSpaceOnUse">
		<stop  offset="0" style="stop-color:#FFCC00"/>
		<stop  offset="9.156838e-02" style="stop-color:#FFC800"/>
		<stop  offset="0.1739" style="stop-color:#FFBD00"/>
		<stop  offset="0.2528" style="stop-color:#FFAB00"/>
		<stop  offset="0.3295" style="stop-color:#FF9100"/>
		<stop  offset="0.4046" style="stop-color:#FF7000"/>
		<stop  offset="0.4786" style="stop-color:#FF4700"/>
		<stop  offset="0.5503" style="stop-color:#FF1800"/>
		<stop  offset="0.5822" style="stop-color:#FF0000"/>
		<stop  offset="1" style="stop-color:#FF0000"/>
	</radialGradient>
	<path class="st1" d="M119.3,92.4l-19.2,28.1l-9.8-15l11.3-16.9c2.1-3,6.6-11.3,1.4-22.6c-4.2-9.2-13.3-13.6-21.3-13.6
		S65,56.5,60.3,66c-5.3,10.9-0.7,19.4,1.3,22.3c0,0,6.3,9.2,11.5,17l8.5,12.3l12.8,19.6c0.1,0.1,2.1,3.2,5.7,3.2
		c3.4,0,5.5-3.1,5.8-3.4l30-44.4h-16.6V92.4z M81.6,93.1c0,0-5-7.6-8.3-12.9C69.8,74.5,73.7,66,81.6,66c7.9,0,11.8,8.5,8.3,14.2
		C86.7,85.5,81.6,93.1,81.6,93.1z"/>
	<g>

			<radialGradient id="SVGID_2_" cx="22.0523" cy="121.8032" r="81.0887" gradientTransform="matrix(1 0 0 -1 0 187)" gradientUnits="userSpaceOnUse">
			<stop  offset="0" style="stop-color:#00B4E6"/>
			<stop  offset="0.201" style="stop-color:#00B0E3"/>
			<stop  offset="0.3898" style="stop-color:#01A5DB"/>
			<stop  offset="0.5737" style="stop-color:#0292CD"/>
			<stop  offset="0.7546" style="stop-color:#0377BA"/>
			<stop  offset="0.9316" style="stop-color:#0455A1"/>
			<stop  offset="1" style="stop-color:#054696"/>
		</radialGradient>
		<path class="st2" d="M63.2,119.6L44.4,93.2c0,0-5-7.6-8.3-12.9c-3.5-5.7,0.4-14.2,8.3-14.2c1,0,1.9,0.1,2.8,0.4l6.6-12.1
			c-3-1.3-6.3-2-9.3-2c-8,0-16.7,4.1-21.4,13.6c-5.3,10.9-0.7,19.4,1.3,22.3L57.3,137c0.3,0.4,2.4,3.5,5.9,3.5s5.5-3,5.8-3.4
			l9.9-15.1l-8.5-12.5L63.2,119.6z"/>
	</g>
</g>
</svg>
