<?xml version="1.0" encoding="utf-8"?>
<!-- Generator: Adobe Illustrator 26.1.0, SVG Export Plug-In . SVG Version: 6.00 Build 0)  -->
<svg version="1.1" id="Layer_1" xmlns="http://www.w3.org/2000/svg" xmlns:xlink="http://www.w3.org/1999/xlink" x="0px" y="0px"
	 viewBox="0 0 171.1 171.1" style="enable-background:new 0 0 171.1 171.1;" xml:space="preserve">
<g id="Layer_1_00000127758895944918516350000018047705097967082166_">
	<g>
		<rect x="68.3" y="14.6" width="3.8" height="11.5"/>
		<rect x="114.3" y="14.6" width="3.8" height="3.8"/>
		<polygon points="129.6,14.6 129.6,18.5 129.6,37.6 133.4,37.6 133.4,18.5 152.6,18.5 152.6,37.6 156.4,37.6 156.4,18.5 
			156.4,14.6 		"/>
		<polygon points="18.5,18.5 37.7,18.5 37.7,37.6 41.5,37.6 41.5,18.5 41.5,14.6 14.7,14.6 14.7,18.5 14.7,37.6 18.5,37.6 		"/>
		<polygon points="60.6,18.5 64.5,18.5 64.5,14.6 56.8,14.6 56.8,18.5 45.3,18.5 45.3,22.3 60.6,22.3 		"/>
		<polygon points="102.8,22.3 106.6,22.3 106.6,18.5 106.6,18.5 106.6,14.6 99,14.6 99,18.5 102.8,18.5 		"/>
		<rect x="110.5" y="18.5" width="3.8" height="3.8"/>
		<rect x="118.1" y="18.5" width="3.8" height="3.8"/>
		<rect x="22.3" y="22.3" width="11.5" height="11.5"/>
		<rect x="114.3" y="22.3" width="3.8" height="3.8"/>
		<rect x="137.3" y="22.3" width="11.5" height="11.5"/>
		<polygon points="106.6,30 106.6,33.8 110.4,33.8 110.4,30 106.6,30 106.6,26.1 102.8,26.1 102.8,22.3 99,22.3 99,26.1 95.1,26.1 
			95.1,30 		"/>
		<rect x="110.5" y="26.1" width="3.8" height="3.8"/>
		<polygon points="122,30 122,33.8 118.1,33.8 118.1,37.6 125.8,37.6 125.8,33.8 125.8,30 125.8,26.1 118.1,26.1 118.1,30 		"/>
		<polygon points="64.5,33.8 64.5,37.6 68.3,37.6 68.3,33.8 72.1,33.8 72.1,30 64.5,30 64.5,22.3 60.6,22.3 60.6,30 56.8,30 
			56.8,33.8 		"/>
		<polygon points="91.3,33.8 91.3,37.6 106.6,37.6 106.6,33.8 91.3,33.8 91.3,30 91.3,30 91.3,26.1 95.1,26.1 95.1,18.5 95.1,18.5 
			95.1,14.6 91.3,14.6 91.3,18.5 87.5,18.5 87.5,14.6 79.8,14.6 79.8,18.5 79.8,22.3 83.6,22.3 83.6,18.5 87.5,18.5 87.5,26.1 
			87.5,30 83.6,30 83.6,33.8 		"/>
		<polygon points="49.1,37.6 56.8,37.6 56.8,33.8 53,33.8 53,30 56.8,30 56.8,26.1 49.1,26.1 49.1,30 45.3,30 45.3,33.8 49.1,33.8 
					"/>
		<polygon points="79.8,37.6 79.8,33.8 79.8,33.8 79.8,30 83.6,30 83.6,26.1 79.8,26.1 79.8,22.3 76,22.3 76,26.1 76,30 76,33.8 
			72.1,33.8 72.1,37.6 		"/>
		<rect x="110.5" y="33.8" width="3.8" height="3.8"/>
		<rect x="14.7" y="37.6" width="26.8" height="3.8"/>
		<rect x="45.3" y="37.6" width="3.8" height="3.8"/>
		<rect x="53" y="37.6" width="3.8" height="3.8"/>
		<polygon points="60.6,37.6 60.6,41.5 60.6,45.3 68.3,45.3 68.3,49.1 76,49.1 76,45.3 76,45.3 76,41.5 72.1,41.5 72.1,37.6 
			68.3,37.6 68.3,41.5 64.5,41.5 64.5,37.6 		"/>
		<rect x="76" y="37.6" width="3.8" height="3.8"/>
		<polygon points="83.6,37.6 83.6,41.5 79.8,41.5 79.8,45.3 99,45.3 99,49.1 95.1,49.1 95.1,52.9 102.8,52.9 102.8,49.1 106.6,49.1 
			106.6,45.3 106.6,41.5 110.4,41.5 110.4,37.6 106.6,37.6 106.6,41.5 102.8,41.5 102.8,37.6 99,37.6 99,41.5 95.1,41.5 95.1,37.6 
			91.3,37.6 91.3,41.5 87.5,41.5 87.5,37.6 		"/>
		<rect x="114.3" y="37.6" width="3.8" height="3.8"/>
		<rect x="129.6" y="37.6" width="26.8" height="3.8"/>
		<rect x="110.5" y="41.5" width="3.8" height="3.8"/>
		<rect x="22.3" y="45.3" width="3.8" height="3.8"/>
		<rect x="30" y="45.3" width="3.8" height="3.8"/>
		<rect x="37.7" y="45.3" width="3.8" height="3.8"/>
		<rect x="137.3" y="45.3" width="3.8" height="3.8"/>
		<rect x="148.8" y="45.3" width="3.8" height="3.8"/>
		<polygon points="49.2,52.9 49.2,49.1 56.8,49.1 56.8,45.3 49.1,45.3 49.1,49.1 41.5,49.1 41.5,52.9 		"/>
		<rect x="60.6" y="49.1" width="3.8" height="3.8"/>
		<rect x="79.8" y="49.1" width="3.8" height="3.8"/>
		<rect x="87.5" y="49.1" width="3.8" height="3.8"/>
		<polygon points="133.4,49.1 122,49.1 122,45.3 125.8,45.3 125.8,41.5 125.8,37.6 122,37.6 122,41.5 118.1,41.5 118.1,45.3 
			114.3,45.3 114.3,49.1 110.5,49.1 110.5,52.9 133.4,52.9 		"/>
		<rect x="144.9" y="49.1" width="3.8" height="3.8"/>
		<polygon points="152.6,56.8 148.8,56.8 148.8,53 141.1,53 141.1,56.8 137.3,56.8 137.3,53 129.6,53 129.6,56.8 122,56.8 122,60.6 
			122,68.3 125.8,68.3 125.8,60.6 129.6,60.6 129.6,64.4 133.4,64.4 133.4,60.6 129.6,60.6 129.6,56.8 133.4,56.8 133.4,60.6 
			137.3,60.6 137.3,64.4 141.1,64.4 141.1,60.6 144.9,60.6 144.9,56.8 148.8,56.8 148.8,60.6 152.6,60.6 152.6,64.4 156.4,64.4 
			156.4,60.6 156.4,56.8 156.4,49.1 152.6,49.1 		"/>
		<polygon points="22.3,53 18.5,53 18.5,45.3 14.7,45.3 14.7,53 14.7,56.8 22.3,56.8 		"/>
		<polygon points="33.8,53 26.2,53 26.2,60.6 26.2,60.6 26.2,64.4 45.3,64.4 45.3,60.6 33.8,60.6 		"/>
		<polygon points="76,56.8 79.8,56.8 79.8,60.6 83.6,60.6 83.6,64.4 87.5,64.4 87.5,60.6 87.5,60.6 87.5,56.8 87.5,56.8 87.5,53 
			76,53 		"/>
		<rect x="99" y="53" width="3.8" height="3.8"/>
		<rect x="118.1" y="53" width="3.8" height="3.8"/>
		<polygon points="95.1,56.8 95.1,53 91.3,53 91.3,56.8 91.3,60.6 99,60.6 99,56.8 		"/>
		<rect x="114.3" y="56.8" width="3.8" height="7.7"/>
		<polygon points="64.5,64.4 64.5,60.6 56.8,60.6 56.8,56.8 60.7,56.8 60.7,53 53,53 53,56.8 45.3,56.8 45.3,53 37.7,53 37.7,56.8 
			45.3,56.8 45.3,60.6 53,60.6 53,64.4 		"/>
		<polygon points="68.3,64.4 72.1,64.4 72.1,60.6 72.2,60.6 72.2,56.8 64.5,56.8 64.5,60.6 68.3,60.6 		"/>
		<rect x="76" y="60.6" width="3.8" height="3.8"/>
		<rect x="99" y="60.6" width="3.8" height="3.8"/>
		<rect x="106.6" y="60.6" width="3.8" height="3.8"/>
		<rect x="144.9" y="60.6" width="3.8" height="3.8"/>
		<polygon points="95.1,68.3 99,68.3 99,72.1 102.8,72.1 102.8,68.3 106.6,68.3 106.6,72.1 110.5,72.1 110.5,75.9 106.6,75.9 
			106.6,79.8 114.3,79.8 114.3,75.9 114.3,72.1 114.3,68.3 114.3,64.4 95.1,64.4 		"/>
		<polygon points="152.6,64.4 141.1,64.4 141.1,68.3 148.8,68.3 148.8,72.1 148.8,75.9 152.6,75.9 152.6,72.1 156.4,72.1 
			156.4,68.3 152.6,68.3 		"/>
		<rect x="91.3" y="68.3" width="3.8" height="3.8"/>
		<rect x="118.1" y="68.3" width="3.8" height="3.8"/>
		<rect x="129.6" y="68.3" width="3.8" height="3.8"/>
		<path d="M30,72.1h3.8v3.8H30v3.8h15.3v-3.8v-3.8v-3.8h3.8v3.8H53v-3.8l0,0v-3.8H41.5v3.8h-3.8v-3.8h-3.8v3.8H18.5v-7.7h-3.8v7.7
			v3.8v3.8H30V72.1z M41.5,72.1v3.8h-3.8v-3.8H41.5z"/>
		<polygon points="53,72.1 53,75.9 56.8,75.9 56.8,79.8 64.5,79.8 64.5,75.9 60.7,75.9 60.7,72.1 64.5,72.1 64.5,68.3 64.5,68.3 
			64.5,64.4 56.8,64.4 56.8,68.3 60.6,68.3 60.6,72.1 		"/>
		<rect x="87.5" y="72.1" width="3.8" height="3.8"/>
		<rect x="95.1" y="72.1" width="3.8" height="3.8"/>
		<rect x="102.8" y="72.1" width="3.8" height="3.8"/>
		<rect x="49.1" y="75.9" width="3.8" height="3.8"/>
		<rect x="99" y="75.9" width="3.8" height="3.8"/>
		<polygon points="129.6,75.9 129.6,72.1 125.8,72.1 125.8,75.9 118.1,75.9 118.1,79.8 137.3,79.8 137.3,75.9 137.3,72.1 
			133.4,72.1 133.4,75.9 		"/>
		<rect x="18.5" y="79.8" width="3.8" height="3.8"/>
		<polygon points="49.1,79.8 45.3,79.8 45.3,83.6 45.3,87.4 41.5,87.4 41.5,91.3 45.3,91.3 45.3,95.1 53,95.1 53,91.3 53,87.4 
			53,83.6 49.1,83.6 		"/>
		<rect x="87.5" y="79.8" width="11.5" height="3.8"/>
		<rect x="106.6" y="79.8" width="3.8" height="3.8"/>
		<rect x="118.1" y="79.8" width="3.8" height="3.8"/>
		<polygon points="129.6,79.8 125.8,79.8 125.8,83.6 125.8,91.3 129.6,91.3 129.6,95.1 133.4,95.1 133.4,91.3 137.3,91.3 
			137.3,83.6 129.6,83.6 		"/>
		<rect x="137.3" y="79.8" width="3.8" height="3.8"/>
		<rect x="152.6" y="79.8" width="3.8" height="7.7"/>
		<rect x="37.7" y="83.6" width="3.8" height="3.8"/>
		<rect x="83.6" y="83.6" width="3.8" height="3.8"/>
		<rect x="114.3" y="83.6" width="3.8" height="3.8"/>
		<polygon points="148.8,87.4 148.8,91.3 141.1,91.3 141.1,95.1 148.8,95.1 148.8,91.3 152.6,91.3 152.6,87.4 148.8,87.4 
			148.8,83.6 148.8,83.6 148.8,79.8 144.9,79.8 144.9,83.6 141.1,83.6 141.1,87.4 		"/>
		<rect x="14.7" y="87.4" width="3.8" height="3.8"/>
		<polygon points="30,95.1 30,87.4 30,87.4 30,83.6 30,83.6 30,79.8 26.2,79.8 26.2,83.6 22.3,83.6 22.3,87.4 26.2,87.4 26.2,95.1 
					"/>
		<rect x="33.8" y="87.4" width="3.8" height="3.8"/>
		<rect x="56.8" y="87.4" width="3.8" height="3.8"/>
		<path d="M76,91.3v-3.8h3.8v-3.8H76V72.1h3.8v7.7h3.8v-7.7v-3.8h3.8v-3.8H68.3v3.8H76v3.8h-7.7v11.5h-3.8v-3.8H53v3.8h7.7v3.8h3.8
			v3.8L76,91.3L76,91.3z M72.1,83.6H76v3.8h-3.8L72.1,83.6L72.1,83.6z"/>
		<rect x="118.1" y="87.4" width="3.8" height="3.8"/>
		<rect x="18.5" y="91.3" width="3.8" height="3.8"/>
		<rect x="37.7" y="91.3" width="3.8" height="3.8"/>
		<rect x="91.3" y="91.3" width="3.8" height="3.8"/>
		<rect x="106.6" y="91.3" width="3.8" height="3.8"/>
		<rect x="152.6" y="91.3" width="3.8" height="3.8"/>
		<rect x="133.4" y="95.1" width="3.8" height="3.8"/>
		<path d="M99,102.7v-3.8h-3.8v-3.8h-23v3.8H76v3.8h-3.8v3.8v3.8h7.7v-3.8h3.8v3.8h7.7v-3.8h3.8v-3.8H99z M79.8,102.7v-3.8h3.8v3.8
			H79.8z M87.5,102.7v-3.8h3.8v3.8H87.5z"/>
		<rect x="129.6" y="98.9" width="3.8" height="3.8"/>
		<rect x="148.8" y="98.9" width="3.8" height="7.7"/>
		<rect x="14.7" y="102.7" width="3.8" height="3.8"/>
		<polygon points="22.3,106.6 18.5,106.6 18.5,110.4 45.3,110.4 45.3,106.6 37.7,106.6 37.7,102.7 45.3,102.7 45.3,98.9 33.8,98.9 
			33.8,102.7 33.8,106.6 30,106.6 30,102.7 30,102.7 30,98.9 22.3,98.9 22.3,95.1 14.7,95.1 14.7,98.9 18.5,98.9 18.5,102.7 
			22.3,102.7 		"/>
		<polygon points="49.1,106.6 49.1,110.4 53,110.4 53,106.6 56.8,106.6 56.8,102.7 64.5,102.7 64.5,98.9 64.5,98.9 64.5,95.1 
			53,95.1 53,98.9 49.1,98.9 49.1,102.7 45.3,102.7 45.3,106.6 		"/>
		<polygon points="102.8,106.6 95.1,106.6 95.1,110.4 102.8,110.4 102.8,106.6 106.6,106.6 106.6,102.7 102.8,102.7 		"/>
		<polygon points="118.1,102.7 125.8,102.7 125.8,98.9 122,98.9 122,95.1 102.8,95.1 102.8,83.6 99,83.6 99,95.1 99,98.9 
			106.6,98.9 106.6,102.7 110.4,102.7 110.4,98.9 114.3,98.9 114.3,102.7 110.5,102.7 110.5,106.6 114.3,106.6 114.3,110.4 
			125.8,110.4 125.8,106.6 118.1,106.6 		"/>
		<rect x="125.8" y="102.7" width="3.8" height="3.8"/>
		<polygon points="141.1,102.7 144.9,102.7 144.9,98.9 144.9,98.9 144.9,95.1 141.1,95.1 141.1,98.9 137.3,98.9 137.3,102.7 
			137.3,106.6 141.1,106.6 		"/>
		<polygon points="68.3,110.4 68.3,106.6 68.3,102.7 64.5,102.7 64.5,106.6 56.8,106.6 56.8,110.4 		"/>
		<rect x="106.6" y="106.6" width="3.8" height="3.8"/>
		<rect x="129.6" y="106.6" width="7.7" height="3.8"/>
		<rect x="18.5" y="110.4" width="3.8" height="3.8"/>
		<rect x="102.8" y="110.4" width="3.8" height="3.8"/>
		<rect x="110.5" y="110.4" width="3.8" height="3.8"/>
		<rect x="118.1" y="110.4" width="3.8" height="3.8"/>
		<polygon points="133.4,110.4 133.4,114.2 129.6,114.2 129.6,118.1 137.3,118.1 137.3,114.2 137.3,114.2 137.3,110.4 		"/>
		<polygon points="148.8,114.2 148.8,110.4 141.1,110.4 141.1,114.2 144.9,114.2 144.9,118.1 141.1,118.1 141.1,121.9 148.8,121.9 
			148.8,118.1 148.8,118.1 		"/>
		<rect x="152.6" y="110.4" width="3.8" height="7.7"/>
		<rect x="14.7" y="114.2" width="3.8" height="3.8"/>
		<polygon points="68.3,118.1 72.1,118.1 72.1,114.2 79.8,114.2 79.8,110.4 64.5,110.4 64.5,114.2 68.3,114.2 		"/>
		<rect x="83.6" y="114.2" width="3.8" height="3.8"/>
		<polygon points="95.1,114.2 99,114.2 99,110.4 87.5,110.4 87.5,114.2 91.3,114.2 91.3,125.7 95.1,125.7 		"/>
		<rect x="99" y="114.2" width="3.8" height="3.8"/>
		<rect x="18.5" y="118.1" width="3.8" height="3.8"/>
		<polygon points="102.8,118.1 102.8,121.9 110.5,121.9 110.5,118.1 110.4,118.1 110.4,114.2 106.6,114.2 106.6,118.1 		"/>
		<polygon points="114.3,121.9 122,121.9 122,118.1 118.1,118.1 118.1,114.2 114.3,114.2 114.3,118.1 		"/>
		<rect x="14.7" y="121.9" width="3.8" height="3.8"/>
		<rect x="37.7" y="121.9" width="3.8" height="3.8"/>
		<rect x="53" y="121.9" width="3.8" height="3.8"/>
		<rect x="83.6" y="121.9" width="3.8" height="3.8"/>
		<rect x="114.3" y="121.9" width="3.8" height="3.8"/>
		<rect x="144.9" y="121.9" width="11.5" height="3.8"/>
		<rect x="45.3" y="125.7" width="7.7" height="3.8"/>
		<rect x="110.5" y="125.7" width="3.8" height="3.8"/>
		<polygon points="14.7,133.4 14.7,152.5 18.5,152.5 18.5,133.4 37.7,133.4 37.7,152.5 41.5,152.5 41.5,133.4 41.5,129.6 
			14.7,129.6 		"/>
		<polygon points="83.6,129.6 83.6,133.4 79.8,133.4 79.8,137.2 91.3,137.2 91.3,133.4 91.3,129.6 91.3,129.6 91.3,125.7 
			87.5,125.7 87.5,129.6 		"/>
		<polygon points="106.6,129.6 106.6,129.6 106.6,125.7 95.1,125.7 95.1,129.6 95.1,137.2 99,137.2 99,129.6 102.8,129.6 
			102.8,133.4 102.8,137.2 110.5,137.2 110.5,133.4 106.6,133.4 		"/>
		<polygon points="114.3,129.6 114.3,133.4 122,133.4 122,137.2 125.8,137.2 125.8,133.4 125.8,129.6 125.8,125.7 137.3,125.7 
			137.3,133.4 137.3,133.4 137.3,137.2 144.9,137.2 144.9,133.4 141.1,133.4 141.1,125.7 141.1,121.9 122,121.9 122,125.7 
			118.1,125.7 118.1,129.6 		"/>
		<rect x="129.6" y="129.6" width="3.8" height="3.8"/>
		<polygon points="148.8,133.4 148.8,137.2 152.6,137.2 152.6,133.4 156.4,133.4 156.4,129.6 148.8,129.6 		"/>
		<rect x="64.5" y="133.4" width="3.8" height="7.7"/>
		<polygon points="76,133.4 79.8,133.4 79.8,129.6 83.6,129.6 83.6,125.7 79.8,125.7 79.8,118.1 76,118.1 76,125.7 72.1,125.7 
			72.1,121.9 68.3,121.9 68.3,125.7 64.5,125.7 64.5,118.1 64.5,118.1 64.5,114.2 60.6,114.2 60.6,110.4 41.5,110.4 41.5,114.2 
			37.7,114.2 37.7,110.4 33.8,110.4 33.8,114.2 26.2,114.2 26.2,118.1 26.2,121.9 30,121.9 30,118.1 33.8,118.1 33.8,121.9 
			37.7,121.9 37.7,118.1 41.5,118.1 41.5,121.9 45.3,121.9 45.3,118.1 45.3,114.2 56.8,114.2 56.8,118.1 60.6,118.1 60.6,125.7 
			60.6,129.6 53,129.6 53,133.4 56.8,133.4 56.8,137.2 60.6,137.2 60.6,133.4 64.5,133.4 64.5,129.6 68.3,129.6 68.3,133.4 
			72.1,133.4 72.1,141.1 72.1,148.7 68.3,148.7 68.3,144.9 64.5,144.9 64.5,148.7 60.6,148.7 60.6,144.9 60.6,141.1 56.8,141.1 
			56.8,144.9 45.3,144.9 45.3,148.7 49.1,148.7 49.1,152.5 53,152.5 53,148.7 56.8,148.7 56.8,152.5 72.1,152.5 72.1,148.7 
			79.8,148.7 79.8,141.1 76,141.1 		"/>
		<rect x="22.3" y="137.2" width="11.5" height="11.5"/>
		<rect x="45.3" y="137.2" width="11.5" height="3.8"/>
		<rect x="79.8" y="137.2" width="7.7" height="3.8"/>
		<polygon points="106.6,141.1 102.8,141.1 102.8,144.9 102.8,148.7 102.8,152.5 106.6,152.5 106.6,148.7 110.5,148.7 110.5,144.9 
			106.6,144.9 		"/>
		<polygon points="152.6,141.1 152.6,137.2 118.1,137.2 118.1,141.1 125.8,141.1 125.8,144.9 129.6,144.9 129.6,141.1 133.4,141.1 
			133.4,144.9 137.3,144.9 137.3,141.1 148.8,141.1 148.8,144.9 152.6,144.9 		"/>
		<polygon points="122,148.7 114.3,148.7 114.3,152.5 125.8,152.5 125.8,148.7 125.8,144.9 122,144.9 		"/>
		<rect x="129.6" y="144.9" width="3.8" height="3.8"/>
		<rect x="137.3" y="144.9" width="3.8" height="3.8"/>
		<rect x="144.9" y="144.9" width="3.8" height="3.8"/>
		<rect x="152.6" y="144.9" width="3.8" height="3.8"/>
		<polygon points="91.3,148.7 95.1,148.7 95.1,137.2 91.3,137.2 91.3,148.7 87.5,148.7 87.5,152.5 91.3,152.5 		"/>
		<rect x="133.4" y="148.7" width="3.8" height="3.8"/>
		<rect x="141.1" y="148.7" width="3.8" height="3.8"/>
		<rect x="148.8" y="148.7" width="3.8" height="3.8"/>
		<rect x="14.7" y="152.6" width="26.8" height="3.8"/>
		<rect x="45.3" y="152.6" width="3.8" height="3.8"/>
		<rect x="60.6" y="152.6" width="7.7" height="3.8"/>
		<rect x="76" y="152.6" width="3.8" height="3.8"/>
		<rect x="83.6" y="152.6" width="3.8" height="3.8"/>
		<rect x="91.3" y="152.6" width="7.7" height="3.8"/>
		<rect x="106.6" y="152.6" width="3.8" height="3.8"/>
		<rect x="114.3" y="152.6" width="3.8" height="3.8"/>
		<rect x="122" y="152.6" width="3.8" height="3.8"/>
		<rect x="137.3" y="152.6" width="3.8" height="3.8"/>
		<rect x="144.9" y="152.6" width="11.5" height="3.8"/>
	</g>
</g>
</svg>
